<?xml version="1.0" encoding="UTF-8"?>
<svg xmlns="http://www.w3.org/2000/svg" xmlns:xlink="http://www.w3.org/1999/xlink" width="496px" height="496px" viewBox="0 0 496 396" version="1.1">
<g id="surface1">
<path style=" stroke:none;fill-rule:nonzero;fill:rgb(100%,100%,100%);fill-opacity:1;" d="M 242.421875 108.382812 C 253.011719 108.089844 263.617188 108.328125 274.214844 108.25 L 319.203125 108.25 C 321.082031 108.253906 322.984375 108.144531 324.832031 108.585938 C 329.273438 109.527344 333.234375 112.4375 335.507812 116.355469 C 337.988281 120.546875 338.394531 125.871094 336.625 130.402344 C 334.703125 135.4375 330.144531 139.371094 324.863281 140.488281 C 322.851562 140.976562 320.761719 140.847656 318.714844 140.863281 L 247.109375 140.863281 C 231.871094 141.027344 216.863281 147.660156 206.476562 158.773438 C 195.699219 170.058594 189.953125 185.921875 191.058594 201.476562 C 191.949219 216.21875 198.992188 230.421875 210.089844 240.171875 C 220.296875 249.289062 233.875 254.546875 247.582031 254.644531 C 251.566406 254.597656 255.609375 255.832031 258.703125 258.390625 C 262.484375 261.429688 264.699219 266.335938 264.308594 271.191406 C 263.957031 275.394531 262.632812 279.722656 259.675781 282.847656 C 257.027344 285.683594 253.132812 287.101562 249.308594 287.257812 C 231.011719 287.714844 212.625 282.269531 197.523438 271.949219 C 183.859375 262.640625 172.832031 249.523438 166.027344 234.472656 C 158.71875 218.386719 156.511719 200.117188 159.433594 182.726562 C 162.683594 162.933594 173.042969 144.484375 187.964844 131.09375 C 202.820312 117.609375 222.382812 109.492188 242.421875 108.382812 Z M 242.421875 108.382812 "/>
<path style=" stroke:none;fill-rule:nonzero;fill:rgb(100%,100%,100%);fill-opacity:1;" d="M 245.894531 181.554688 C 251.976562 181.316406 258.074219 181.484375 264.164062 181.441406 C 283.671875 181.429688 303.183594 181.449219 322.6875 181.445312 C 330.773438 181.933594 337.671875 189.203125 337.707031 197.289062 C 337.757812 220.480469 337.714844 243.667969 337.730469 266.859375 C 337.695312 269.613281 337.921875 272.429688 337.183594 275.121094 C 335.925781 280.023438 332.226562 284.203125 327.53125 286.097656 C 321.644531 288.5625 314.378906 287.167969 309.867188 282.640625 C 306.914062 279.761719 305.101562 275.726562 304.984375 271.601562 C 304.855469 265.347656 305.386719 259.019531 304.117188 252.847656 C 301.609375 239.464844 292.992188 227.425781 281.203125 220.605469 C 275.832031 217.46875 269.898438 215.410156 263.730469 214.550781 C 259.246094 213.890625 254.703125 214.097656 250.1875 214.066406 C 248.289062 214.058594 246.363281 214.175781 244.507812 213.726562 C 239.851562 212.757812 235.722656 209.632812 233.5 205.445312 C 231.300781 201.394531 230.976562 196.394531 232.582031 192.082031 C 234.613281 186.476562 239.953125 182.230469 245.894531 181.554688 Z M 245.894531 181.554688 "/>
</g>
</svg>
