<?xml version="1.0" standalone="no"?>
<!DOCTYPE svg PUBLIC "-//W3C//DTD SVG 20010904//EN"
 "http://www.w3.org/TR/2001/REC-SVG-20010904/DTD/svg10.dtd">
<svg version="1.0" xmlns="http://www.w3.org/2000/svg"
 width="1515.000000pt" height="1515.000000pt" viewBox="0 0 1515.000000 1515.000000"
 preserveAspectRatio="xMidYMid meet">
<metadata>
Created by potrace 1.14, written by Peter Selinger 2001-2017
</metadata>
<g transform="translate(0.000000,1515.000000) scale(0.100000,-0.100000)"
fill="#000000" stroke="none">
<path d="M7457 10324 c-1 -1 -47 -4 -102 -8 -127 -8 -190 -16 -300 -37 -27 -6
-61 -13 -75 -15 -191 -37 -446 -130 -665 -241 -624 -318 -1124 -904 -1347
-1578 -32 -98 -84 -301 -93 -368 -10 -72 -13 -91 -20 -134 -13 -84 -16 -131
-19 -318 -4 -237 14 -421 60 -630 20 -88 20 -89 39 -155 9 -30 18 -62 20 -70
36 -138 153 -399 261 -580 50 -86 168 -257 214 -313 355 -430 770 -721 1269
-889 63 -21 123 -40 135 -42 12 -2 48 -11 81 -19 85 -22 200 -45 270 -53 33
-3 69 -8 80 -11 11 -2 101 -7 200 -10 261 -8 343 15 454 125 84 84 122 164
145 302 21 130 1 239 -64 338 -62 97 -190 191 -281 207 -18 3 -36 8 -40 11 -4
2 -47 6 -96 9 -117 6 -227 15 -255 21 -13 2 -36 6 -53 8 -126 17 -350 93 -501
172 -508 263 -850 753 -930 1329 -4 28 -8 120 -9 205 -3 317 77 613 244 898
85 146 259 349 396 460 167 137 409 261 631 325 227 65 221 65 1554 66 763 0
1224 4 1258 10 118 23 255 118 321 225 61 97 86 219 69 331 -11 79 -15 92 -47
155 -61 119 -158 205 -287 252 l-59 21 -1228 1 c-675 1 -1229 1 -1230 0z"/>
<path d="M7495 8079 c-155 -22 -297 -126 -368 -272 -50 -102 -65 -212 -43
-327 14 -75 74 -181 139 -244 129 -126 190 -143 542 -150 258 -4 313 -10 475
-51 150 -38 354 -138 492 -242 91 -68 244 -225 312 -321 128 -180 227 -422
251 -612 4 -30 9 -59 12 -63 3 -4 6 -124 8 -265 2 -141 6 -268 9 -281 40 -178
170 -326 329 -376 275 -86 546 52 639 323 l22 67 1 1185 c1 839 -3 1201 -10
1241 -12 55 -63 167 -91 198 -94 101 -149 141 -245 178 -40 15 -146 17 -1234
18 -654 0 -1212 -2 -1240 -6z"/>
</g>
</svg>
